<?xml version="1.0" encoding="UTF-8" standalone="no"?>
<!DOCTYPE svg PUBLIC "-//W3C//DTD SVG 1.1//EN" "http://www.w3.org/Graphics/SVG/1.1/DTD/svg11.dtd">
<svg width="100%" height="100%" viewBox="0 0 33 42" version="1.1" xmlns="http://www.w3.org/2000/svg" xmlns:xlink="http://www.w3.org/1999/xlink" xml:space="preserve" xmlns:serif="http://www.serif.com/" style="fill-rule:evenodd;clip-rule:evenodd;stroke-linecap:round;stroke-linejoin:round;stroke-miterlimit:1.5;">
    <g transform="matrix(1,0,0,1,-14116,-10951)">
        <g transform="matrix(0.481659,0,0,0.270933,14589.6,12242.2)">
            <g id="icon-monachus" transform="matrix(2.07616,0,0,3.69094,-30281.9,-44335.6)">
                <g transform="matrix(1.05107,0,0,1.05107,-673.357,-573.706)">
                    <circle cx="14075.4" cy="10776.9" r="7.002" style="fill:none;stroke:rgb(177,213,199);stroke-width:2.67px;"/>
                </g>
                <g transform="matrix(1.05107,0,0,1.05107,-658.637,-573.706)">
                    <circle cx="14075.4" cy="10776.9" r="7.002" style="fill:none;stroke:rgb(177,213,199);stroke-width:2.67px;"/>
                </g>
                <path d="M14128.2,10753.6L14128.2,10723" style="fill:none;stroke:rgb(177,213,199);stroke-width:2.67px;"/>
                <g transform="matrix(3.57571e-17,-1,0.583958,6.12323e-17,7857.52,24866.6)">
                    <path d="M14128.2,10753.6L14128.2,10723" style="fill:none;stroke:rgb(177,213,199);stroke-width:3.26px;"/>
                </g>
                <g transform="matrix(3.57571e-17,-1,0.583958,6.12323e-17,7857.71,24860)">
                    <path d="M14128.2,10753.6L14128.2,10723" style="fill:none;stroke:rgb(177,213,199);stroke-width:3.26px;"/>
                </g>
            </g>
        </g>
    </g>
</svg>
